<svg xmlns="http://www.w3.org/2000/svg" viewBox="0 0 512 512" aria-hidden="true">
  <path class="splash-rabbit__path splash-rabbit__path--1" fill="none" d="M 254.5 136.0 L 266.5 139.0 L 276.5 144.0 Q 291.4 153.1 302.0 166.5 L 311.0 179.5 L 323.0 204.5 L 325.5 207.0 L 332.5 209.0 L 337.5 212.0 L 339.5 212.0 L 348.5 217.0 L 361.0 228.5 L 368.0 240.5 L 369.0 246.5 L 370.0 247.5 L 370.0 255.5 L 367.0 262.5 L 360.5 269.0 L 351.5 273.0 Q 346.8 271.8 345.5 274.0 L 335.5 274.0 Q 334.7 275.8 331.5 275.0 L 325.0 279.5 Q 323.2 281.7 324.0 286.5 L 327.5 291.0 L 361.5 304.0 L 377.5 314.0 L 384.0 320.5 L 388.0 327.5 L 389.0 333.5 Q 387.0 334.5 388.0 338.5 L 384.5 344.0 L 376.5 348.0 L 368.5 348.0 L 355.5 342.0 L 350.5 338.0 L 332.5 328.0 L 330.5 328.0 L 325.5 325.0 L 323.5 325.0 L 314.5 321.0 L 307.5 320.0" />
  <path class="splash-rabbit__path splash-rabbit__path--2" fill="none" d="M 307.5 320.0 L 303.5 318.0 L 300.5 318.0 L 299.5 317.0 L 296.5 317.0 L 295.5 316.0 L 292.5 316.0 L 283.5 313.0 L 273.0 305.5 L 268.0 295.5 L 267.0 284.5 L 268.0 283.5 L 268.0 272.5 L 267.0 272.5 Q 258.4 293.9 241.5 307.0 L 235.5 311.0 L 219.5 318.0 Q 215.5 317.0 214.5 319.0 L 199.5 319.0 L 198.5 318.0 L 187.5 317.0 L 186.5 318.0 L 179.5 318.0 Q 178.5 320.0 174.5 319.0 L 168.5 322.0 L 166.5 322.0 Q 159.7 325.7 155.0 331.5 L 147.0 342.5 L 138.5 351.0 L 129.5 356.0 L 120.5 356.0 Q 115.7 354.3 113.0 350.5 L 111.0 345.5 L 111.0 340.5 Q 112.8 339.8 112.0 336.5 L 118.0 324.5 Q 125.7 312.7 135.5 303.0 Q 146.8 291.6 162.0 285.0 L 161.0 275.0 L 158.5 275.0 L 151.5 272.0 L 144.0 264.5 L 141.0 256.5 L 141.0 249.5" />
  <path class="splash-rabbit__path splash-rabbit__path--3" fill="none" d="M 141.0 249.5 L 144.0 241.5 L 151.5 234.0 L 160.5 231.0 L 165.5 231.0 Q 166.3 232.8 169.5 232.0 L 178.5 237.0 L 189.5 228.0 L 202.5 222.0 L 205.5 222.0 L 210.5 220.0 L 217.5 220.0 L 218.5 219.0 L 229.5 219.0 L 230.5 220.0 L 238.5 220.0 Q 239.8 222.3 244.5 221.0 L 245.5 222.0 L 260.5 225.0 L 264.5 227.0 L 271.5 228.0 L 279.5 231.0 L 287.5 231.0 L 291.0 228.5 Q 292.0 224.0 289.5 223.0 L 283.5 220.0 L 263.5 214.0 L 241.5 204.0 L 226.5 194.0 L 213.0 180.5 Q 209.3 176.7 209.0 169.5 L 211.0 165.0 L 217.5 162.0 L 232.5 162.0 L 233.5 163.0 L 241.5 164.0 L 251.5 168.0 L 252.0 166.5 L 247.0 157.5 L 245.0 151.5 L 245.0 142.5 L 248.5 138.0 L 254.5 136.0" />
</svg>
